{"title":"The.Inner.Room.2011.DVDRip.XviD-SPRiNTER.","uid":6876093,"size":751640900,"categoryP":"video","categoryS":"movies","magnet":"?xt=urn:btih:5d2e9e9e46905dbeeae67897462c72d2071a40d7&amp;dn=The.Inner.Room.2011.DVDRip.XviD-SPRiNTER.&amp;tr=udp%3A%2F%2Ftracker.openbittorrent.com%3A80&amp;tr=udp%3A%2F%2Fopen.demonii.com%3A1337&amp;tr=udp%3A%2F%2Ftracker.coppersurfer.tk%3A6969&amp;tr=udp%3A%2F%2Fexodus.desync.com%3A6969","seeders":0,"leechers":0,"uploader":"moviesp2p","files":54,"time":1323427077,"description":"ARTiCHOKE\n\n\n\nSPRiNTER proudly presents\n\n\n\nThe.Inner.Room.2011.DVDRip.XviD-SPRiNTER\n\n\n\nDate: 2011.12\n &lt;a href=&quot;\nhttp://www.imdb.com/title/tt1715352/&quot; rel=&quot;nofollow&quot; target=&quot;_NEW&quot;&gt;\nhttp://www.imdb.com/title/tt1715352/&lt;/a&gt;\n\n\n\nGenre: Horror | Mystery | Thriller\n\nSubtitles: English\n\n\n\nRelease notes\n\n\n\nEnjoy!\n\n\n\nNews\n\n\n\nWe are currently looking for:\n\n\n\nSuppliers who can provide pre-retail or retail dvds with decent upload!\n\n50Mbit+ dump providers with 1TB+ free space\n\n\n\n&lt;a class=&quot;__cf_email__&quot; href=&quot;/cdn-cgi/l/email-protection&quot; data-cfemail=&quot;5f2c2f2d36312b3a2d1f372a2c37713c3032&quot;&gt;[email&amp;#160;protected]&lt;/a&gt;&lt;script cf-hash='f9e31' type=&quot;text/javascript&quot;&gt;\n/* &lt;![CDATA[ */!function(){try{var t=&quot;currentScript&quot;in document?document.currentScript:function(){for(var t=document.getElementsByTagName(&quot;script&quot;),e=t.length;e--;)if(t[e].getAttribute(&quot;cf-hash&quot;))return t[e]}();if(t&amp;&amp;t.previousSibling){var e,r,n,i,c=t.previousSibling,a=c.getAttribute(&quot;data-cfemail&quot;);if(a){for(e=&quot;&quot;,r=parseInt(a.substr(0,2),16),n=2;a.length-n;n+=2)i=parseInt(a.substr(n,2),16)^r,e+=String.fromCharCode(i);e=document.createTextNode(e),c.parentNode.replaceChild(e,c)}}}catch(u){}}();/* ]]&gt; */&lt;/script&gt;\n\n\n\nGreetings\n\n\n\nNTX FiCO HNR CiNEFiLE AEN HUMANiSM TASTE 0MNiDVD\n\n\n\nDetails\n\n\n\nFormat: AVI\n\nFormat/Info: Audio Video Interleave\n\nFile size: 701 MiB\n\nDuration: 1h 22mn\n\nOverall bit rate mode: Variable\n\nOverall bit rate: 1 193 Kbps\n\nWriting application: VirtualDubMod 1.5.10.2 (build 2540/release)\n\nWriting library: VirtualDubMod build 2540/release\n\n\n\nVideo\n\nID: 0\n\nFormat: MPEG-4 Visual\n\nFormat profile: Advanced Simple@L5\n\nFormat settings, BVOP: 2\n\nFormat settings, QPel: No\n\nFormat settings, GMC: No warppoints\n\nFormat settings, Matrix: Default (H.263)\n\nCodec ID: XVID\n\nCodec ID/Hint: XviD\n\nDuration: 1h 22mn\n\nBit rate: 1 045 Kbps\n\nWidth: 608 pixels\n\nHeight: 352 pixels\n\nDisplay aspect ratio: 16:9\n\nFrame rate: 23.976 fps\n\nColor space: YUV\n\nChroma subsampling: 4:2:0\n\nBit depth: 8 bits\n\nScan type: Progressive\n\nCompression mode: Lossy\n\nBits/(Pixel*Frame): 0.204\n\nStream size: 614 MiB (88%)\n\nWriting library: XviD 61\n\n\n\nAudio\n\nID: 1\n\nFormat: MPEG Audio\n\nFormat version: Version 1\n\nFormat profile: Layer 3\n\nMode: Joint stereo\n\nMode extension: MS Stereo\n\nCodec ID: 55\n\nCodec ID/Hint: MP3\n\nDuration: 1h 22mn\n\nBit rate mode: Variable\n\nBit rate: 135 Kbps\n\nMinimum bit rate: 128 Kbps\n\nChannel(s): 2 channels\n\nSampling rate: 48.0 KHz\n\nCompression mode: Lossy\n\nStream size: 79.3 MiB (11%)\n\nAlignment: Aligned on interleaves\n\nInterleave, duration: 24 ms (0.58 video frame)\n\nInterleave, preload duration: 136 ms\n\nWriting library: LAME3.95\n\nEncoding settings: -m j -V 4 -q 3 -lowpass 18 --vbr-old -b 128","torrent":{"xt":"urn:btih:5d2e9e9e46905dbeeae67897462c72d2071a40d7","amp;dn":"The.Inner.Room.2011.DVDRip.XviD-SPRiNTER.","amp;tr":["udp%3A%2F%2Ftracker.openbittorrent.com%3A80","udp%3A%2F%2Fopen.demonii.com%3A1337","udp%3A%2F%2Ftracker.coppersurfer.tk%3A6969","udp%3A%2F%2Fexodus.desync.com%3A6969"],"infoHash":"5d2e9e9e46905dbeeae67897462c72d2071a40d7","infoHashBuffer":{"type":"Buffer","data":[93,46,158,158,70,144,93,190,234,230,120,151,70,44,114,210,7,26,64,215]},"announce":[],"urlList":[]}}